name Walk6.mot
datacolumns 19
datarows 10
range 1.98500000 1.99400000
endheader

                time	   L_ground_force_vx	   L_ground_force_vy	   L_ground_force_vz	   L_ground_force_px	   L_ground_force_py	   L_ground_force_pz	   R_ground_force_vx	   R_ground_force_vy	   R_ground_force_vz	   R_ground_force_px	   R_ground_force_py	   R_ground_force_pz	   L_ground_torque_x	   L_ground_torque_y	   L_ground_torque_z	   R_ground_torque_x	   R_ground_torque_y	   R_ground_torque_z	
          1.98500000	          0.00553282	          0.01919463	         -0.00174797	         -0.00019287	          0.00000000	         -0.00006139	        -16.57703746	        506.66487833	        -40.72488156	          0.21454406	          0.00000000	          0.07717981	          0.00000000	          0.00013042	          0.00000000	          0.00000000	          1.05980903	          0.00000000	
          1.98600000	          0.00452092	          0.01606855	         -0.00168519	         -0.00018210	          0.00000000	         -0.00005811	        -16.17214029	        505.16079638	        -40.62346381	          0.21497482	          0.00000000	          0.07727486	          0.00000000	          0.00012398	          0.00000000	          0.00000000	          1.05834171	          0.00000000	
          1.98700000	          0.00357798	          0.01314754	         -0.00162139	         -0.00017156	          0.00000000	         -0.00005489	        -15.77383429	        503.68910967	        -40.52259790	          0.21540701	          0.00000000	          0.07736914	          0.00000000	          0.00011762	          0.00000000	          0.00000000	          1.05713165	          0.00000000	
          1.98800000	          0.00270169	          0.01042521	         -0.00155688	         -0.00016127	          0.00000000	         -0.00005173	        -15.38205644	        502.24988641	        -40.42225889	          0.21584053	          0.00000000	          0.07746263	          0.00000000	          0.00011136	          0.00000000	          0.00000000	          1.05618640	          0.00000000	
          1.98900000	          0.00188970	          0.00789494	         -0.00149198	         -0.00015124	          0.00000000	         -0.00004865	        -14.99673486	        500.84317795	        -40.32241788	          0.21627533	          0.00000000	          0.07755531	          0.00000000	          0.00010520	          0.00000000	          0.00000000	          1.05551253	          0.00000000	
          1.99000000	          0.00113960	          0.00554998	         -0.00142695	         -0.00014149	          0.00000000	         -0.00004564	        -14.61778949	        499.46902157	        -40.22304290	          0.21671130	          0.00000000	          0.07764713	          0.00000000	          0.00009918	          0.00000000	          0.00000000	          1.05511576	          0.00000000	
          1.99100000	          0.00044898	          0.00338342	         -0.00136207	         -0.00013204	          0.00000000	         -0.00004272	        -14.24513335	        498.12744380	        -40.12409979	          0.21714836	          0.00000000	          0.07773808	          0.00000000	          0.00009329	          0.00000000	          0.00000000	          1.05500111	          0.00000000	
          1.99200000	         -0.00018463	          0.00138829	         -0.00129755	         -0.00012289	          0.00000000	         -0.00003989	        -13.87867386	        496.81846368	        -40.02555292	          0.21758642	          0.00000000	          0.07782811	          0.00000000	          0.00008755	          0.00000000	          0.00000000	          1.05517287	          0.00000000	
          1.99300000	         -0.00076366	         -0.00044246	         -0.00123361	         -0.00011406	          0.00000000	         -0.00003714	        -13.51831441	        495.54209562	        -39.92736572	          0.21802538	          0.00000000	          0.07791720	          0.00000000	          0.00008196	          0.00000000	          0.00000000	          1.05563446	          0.00000000	
          1.99400000	         -0.00129057	         -0.00211587	         -0.00117045	         -0.00010554	          0.00000000	         -0.00003449	        -13.16395551	        494.29835095	        -39.82950105	          0.21846513	          0.00000000	          0.07800531	          0.00000000	          0.00007654	          0.00000000	          0.00000000	          1.05638824	          0.00000000	
